# xmcd
#
# Track frame offsets:
#	150
#	16217
#	31813
#	46655
#	67157
#	84128
#	88536
#	104135
#	118195
#	126627
#	142681
#	157447
#	174142
#
# Disc length: 2748 seconds
#
# Revision: 1
# Processed by: cddbd v1.5.2PL0 Copyright (c) Steve Scherf et al.
# Submitted via: audiograbber 1.83.01
#
DISCID=a90aba0d
DTITLE=jason downing and musketeer gripweed - peace will win!
DYEAR=2006
DGENRE=blues
TTITLE0=freewheelin'
TTITLE1=peace will win
TTITLE2=star wars
TTITLE3=reefer song
TTITLE4=poor man
TTITLE5=poor man jam
TTITLE6=baby on the way
TTITLE7=b-side baby
TTITLE8=space intro
TTITLE9=lucky
TTITLE10=important
TTITLE11=rich man
TTITLE12=gradually by degree
EXTD=
EXTT0=
EXTT1=
EXTT2=
EXTT3=
EXTT4=
EXTT5=
EXTT6=
EXTT7=
EXTT8=
EXTT9=
EXTT10=
EXTT11=
EXTT12=
PLAYORDER=
